<?xml version="1.0" encoding="UTF-8"?>
<svg width="138px" height="35px" viewBox="0 0 138 35" version="1.1" xmlns="http://www.w3.org/2000/svg" xmlns:xlink="http://www.w3.org/1999/xlink">
    <!-- Generator: Sketch 62 (91390) - https://sketch.com -->
    <title>Logo </title>
    <desc>Created with Sketch.</desc>
    <g id="Logo-" stroke="none" stroke-width="1" fill="none" fill-rule="evenodd">
        <path d="M10.4400965,33.3467742 C12.0203699,33.3467742 13.6066291,33.0806452 15.1988743,32.5483871 C16.7911194,32.016129 18.2277316,31.2116935 19.5087108,30.1350806 C20.78969,29.0584677 21.8252479,27.7217742 22.6153846,26.125 C23.4055213,24.5282258 23.8005897,22.6532258 23.8005897,20.5 C23.8005897,18.3709677 23.4055213,16.5020161 22.6153846,14.8931452 C21.8252479,13.2842742 20.78969,11.9415323 19.5087108,10.8649194 C18.2277316,9.78830645 16.7911194,8.98387097 15.1988743,8.4516129 C13.6066291,7.91935484 12.0203699,7.65322581 10.4400965,7.65322581 L10.4400965,7.65322581 L2,7.65322581 L2,33.3467742 L10.4400965,33.3467742 Z M9.7217904,31.0241935 L4.5859019,31.0241935 L4.5859019,9.97580645 L9.7217904,9.97580645 C11.6372733,9.97580645 13.3073349,10.2782258 14.7319753,10.8830645 C16.1566157,11.4879032 17.3358349,12.2802419 18.2696328,13.2600806 C19.2034307,14.2399194 19.9037791,15.358871 20.3706781,16.6169355 C20.8375771,17.875 21.0710265,19.1693548 21.0710265,20.5 C21.0710265,21.8306452 20.8375771,23.125 20.3706781,24.3830645 C19.9037791,25.641129 19.2034307,26.7600806 18.2696328,27.7399194 C17.3358349,28.7197581 16.1566157,29.5120968 14.7319753,30.1169355 C13.3073349,30.7217742 11.6372733,31.0241935 9.7217904,31.0241935 L9.7217904,31.0241935 Z M31.7737872,33.3467742 L31.7737872,7.65322581 L29.1878853,7.65322581 L29.1878853,33.3467742 L31.7737872,33.3467742 Z M47.684267,33.3467742 L57.4173144,7.65322581 L54.651836,7.65322581 L46.391316,29.9717742 L46.3194854,29.9717742 L38.0589654,7.65322581 L35.2575717,7.65322581 L44.9547038,33.3467742 L47.684267,33.3467742 Z M60.7215224,33.3467742 L63.4870008,26.5967742 L76.6320021,26.5967742 L79.4333959,33.3467742 L82.3066202,33.3467742 L71.3883677,7.65322581 L68.8742964,7.65322581 L57.8842133,33.3467742 L60.7215224,33.3467742 Z M75.6622889,24.2016129 L64.456714,24.2016129 L70.0595015,10.5564516 L75.6622889,24.2016129 Z M88.6277137,33.3467742 L88.6277137,21.3346774 L92.9375503,21.3346774 L99.9769499,33.3467742 L103.137497,33.3467742 L95.7030287,21.1169355 C96.6368266,21.0201613 97.4987939,20.8024194 98.2889306,20.4637097 C99.0790673,20.125 99.7614581,19.671371 100.336103,19.1028226 C100.910748,18.5342742 101.365675,17.8629032 101.700884,17.0887097 C102.036094,16.3145161 102.203699,15.4556452 102.203699,14.5120968 C102.203699,13.2540323 101.988207,12.1895161 101.557223,11.3185484 C101.12624,10.4475806 100.521665,9.73991935 99.7435004,9.19556452 C98.9653355,8.65120968 98.0435093,8.25806452 96.978022,8.01612903 C95.9125346,7.77419355 94.757259,7.65322581 93.5121951,7.65322581 L93.5121951,7.65322581 L86.0418118,7.65322581 L86.0418118,33.3467742 L88.6277137,33.3467742 Z M93.1171268,19.0846774 L88.6277137,19.0846774 L88.6277137,9.90322581 L93.2248727,9.90322581 C94.1826141,9.90322581 95.0565532,9.98790323 95.8466899,10.1572581 C96.6368266,10.3266129 97.3072456,10.5927419 97.8579469,10.9556452 C98.4086483,11.3185484 98.8396319,11.7903226 99.1508979,12.3709677 C99.4621639,12.9516129 99.6177968,13.6653226 99.6177968,14.5120968 C99.6177968,16.0362903 99.0551237,17.1794355 97.9297775,17.9415323 C96.8044313,18.703629 95.2002144,19.0846774 93.1171268,19.0846774 L93.1171268,19.0846774 Z M119.443045,34 C120.592334,34 121.651836,33.8729839 122.621549,33.6189516 C123.591262,33.3649194 124.477173,33.0201613 125.279282,32.5846774 C126.08139,32.1491935 126.787724,31.641129 127.398285,31.0604839 C128.008845,30.4798387 128.529617,29.8629032 128.9606,29.2096774 L128.9606,29.2096774 L126.949343,27.9032258 C126.063433,29.233871 124.96203,30.2016129 123.645135,30.8064516 C122.328241,31.4112903 120.939516,31.7137097 119.47896,31.7137097 C117.8508,31.7137097 116.384258,31.4112903 115.079335,30.8064516 C113.774413,30.2016129 112.667024,29.3850806 111.75717,28.3568548 C110.847315,27.328629 110.146967,26.1370968 109.656124,24.7822581 C109.165282,23.4274194 108.919861,22 108.919861,20.5 C108.919861,19 109.159296,17.5725806 109.638167,16.2177419 C110.117037,14.8629032 110.8114,13.671371 111.721254,12.6431452 C112.631109,11.6149194 113.738497,10.7983871 115.04342,10.1935484 C116.348343,9.58870968 117.826856,9.28629032 119.47896,9.28629032 C120.29304,9.28629032 121.053248,9.38306452 121.759582,9.5766129 C122.465916,9.77016129 123.118378,10.0241935 123.716966,10.3387097 C124.315554,10.6532258 124.836326,11.016129 125.279282,11.4274194 C125.722237,11.8387097 126.075404,12.25 126.338783,12.6612903 L126.338783,12.6612903 L128.493701,11.0645161 C128.062718,10.4354839 127.523988,9.87298387 126.877513,9.37701613 C126.231037,8.88104839 125.512731,8.45766129 124.722594,8.10685484 C123.932458,7.75604839 123.088448,7.48387097 122.190566,7.29032258 C121.292683,7.09677419 120.376843,7 119.443045,7 C117.551505,7 115.797641,7.33870968 114.181453,8.01612903 C112.565264,8.69354839 111.164567,9.63104839 109.979362,10.828629 C108.794157,12.0262097 107.866345,13.4475806 107.195926,15.0927419 C106.525507,16.7379032 106.190298,18.5403226 106.190298,20.5 C106.190298,22.4596774 106.519521,24.2620968 107.177968,25.9072581 C107.836416,27.5524194 108.752256,28.9737903 109.925489,30.171371 C111.098722,31.3689516 112.499419,32.3064516 114.12758,32.983871 C115.75574,33.6612903 117.527562,34 119.443045,34 Z M136,33.3467742 L136,7.65322581 L133.414098,7.65322581 L133.414098,33.3467742 L136,33.3467742 Z" id="DIVARCI" fill="#262626" fill-rule="nonzero"></path>
        <polygon id="Line" fill="#2D2D2D" fill-rule="nonzero" points="136 2 136 4 2 4 2 2"></polygon>
    </g>
</svg>